<?xml version="1.0" encoding="UTF-8" standalone="no"?>
<svg
   xmlns:dc="http://purl.org/dc/elements/1.1/"
   xmlns:cc="http://creativecommons.org/ns#"
   xmlns:rdf="http://www.w3.org/1999/02/22-rdf-syntax-ns#"
   xmlns:svg="http://www.w3.org/2000/svg"
   xmlns="http://www.w3.org/2000/svg"
   xmlns:xlink="http://www.w3.org/1999/xlink"
   xmlns:sodipodi="http://sodipodi.sourceforge.net/DTD/sodipodi-0.dtd"
   xmlns:inkscape="http://www.inkscape.org/namespaces/inkscape"
   width="24"
   height="24"
   viewBox="0 0 24 24"
   fill="none"
   version="1.1"
   id="svg8"
   sodipodi:docname="menu.svg"
   inkscape:version="1.0 (4035a4fb49, 2020-05-01)">
  <metadata
     id="metadata14">
    <rdf:RDF>
      <cc:Work
         rdf:about="">
        <dc:format>image/svg+xml</dc:format>
        <dc:type
           rdf:resource="http://purl.org/dc/dcmitype/StillImage" />
      </cc:Work>
    </rdf:RDF>
  </metadata>
  <defs
     id="defs12">
    <linearGradient
       id="linearGradient854"
       inkscape:collect="always">
      <stop
         id="stop848"
         offset="0"
         style="stop-color:#8558d9;stop-opacity:1;" />
      <stop
         style="stop-color:#b500c5;stop-opacity:1"
         offset="1"
         id="stop850" />
    </linearGradient>
    <linearGradient
       id="linearGradient846"
       inkscape:collect="always">
      <stop
         id="stop840"
         offset="0"
         style="stop-color:#8558d9;stop-opacity:1;" />
      <stop
         style="stop-color:#b500c5;stop-opacity:1"
         offset="1"
         id="stop842" />
    </linearGradient>
    <linearGradient
       inkscape:collect="always"
       id="linearGradient901">
      <stop
         style="stop-color:#8558d9;stop-opacity:1;"
         offset="0"
         id="stop897" />
      <stop
         id="stop916"
         offset="1"
         style="stop-color:#b500c5;stop-opacity:1" />
    </linearGradient>
    <linearGradient
       inkscape:collect="always"
       xlink:href="#linearGradient901"
       id="linearGradient914"
       x1="4.25"
       y1="12"
       x2="19.75"
       y2="12"
       gradientUnits="userSpaceOnUse" />
    <linearGradient
       inkscape:collect="always"
       xlink:href="#linearGradient854"
       id="linearGradient924"
       x1="4.25"
       y1="7"
       x2="19.75"
       y2="7"
       gradientUnits="userSpaceOnUse" />
    <linearGradient
       inkscape:collect="always"
       xlink:href="#linearGradient846"
       id="linearGradient926"
       x1="4.25"
       y1="17"
       x2="19.75"
       y2="17"
       gradientUnits="userSpaceOnUse" />
    <linearGradient
       y2="12"
       x2="19.75"
       y1="12"
       x1="4.25"
       gradientUnits="userSpaceOnUse"
       id="linearGradient856"
       xlink:href="#linearGradient901"
       inkscape:collect="always" />
  </defs>
  <sodipodi:namedview
     inkscape:document-rotation="0"
     pagecolor="#ffffff"
     bordercolor="#666666"
     borderopacity="1"
     objecttolerance="10"
     gridtolerance="10"
     guidetolerance="10"
     inkscape:pageopacity="0"
     inkscape:pageshadow="2"
     inkscape:window-width="1366"
     inkscape:window-height="705"
     id="namedview10"
     showgrid="false"
     inkscape:zoom="22.416667"
     inkscape:cx="12.281773"
     inkscape:cy="12.432223"
     inkscape:window-x="-8"
     inkscape:window-y="-8"
     inkscape:window-maximized="1"
     inkscape:current-layer="svg8" />
  <path
     fill-rule="evenodd"
     clip-rule="evenodd"
     d="M19.75 12C19.75 11.5858 19.4142 11.25 19 11.25H5C4.58579 11.25 4.25 11.5858 4.25 12C4.25 12.4142 4.58579 12.75 5 12.75H19C19.4142 12.75 19.75 12.4142 19.75 12Z"
     fill="black"
     id="path2"
     style="fill-opacity:1;fill:url(#linearGradient856)" />
  <path
     fill-rule="evenodd"
     clip-rule="evenodd"
     d="M19.75 7C19.75 6.58579 19.4142 6.25 19 6.25H5C4.58579 6.25 4.25 6.58579 4.25 7C4.25 7.41421 4.58579 7.75 5 7.75H19C19.4142 7.75 19.75 7.41421 19.75 7Z"
     fill="black"
     id="path4"
     style="fill-opacity:1;fill:url(#linearGradient924)" />
  <path
     fill-rule="evenodd"
     clip-rule="evenodd"
     d="M19.75 17C19.75 16.5858 19.4142 16.25 19 16.25H5C4.58579 16.25 4.25 16.5858 4.25 17C4.25 17.4142 4.58579 17.75 5 17.75H19C19.4142 17.75 19.75 17.4142 19.75 17Z"
     fill="black"
     id="path6"
     style="fill-opacity:1;fill:url(#linearGradient926)" />
  <path
     style="fill-opacity:1;fill:url(#linearGradient914)"
     id="path918"
     fill="black"
     d="M19.75 12C19.75 11.5858 19.4142 11.25 19 11.25H5C4.58579 11.25 4.25 11.5858 4.25 12C4.25 12.4142 4.58579 12.75 5 12.75H19C19.4142 12.75 19.75 12.4142 19.75 12Z"
     clip-rule="evenodd"
     fill-rule="evenodd" />
</svg>
