<?xml version="1.0"?>
<svg xmlns="http://www.w3.org/2000/svg" xmlns:xlink="http://www.w3.org/1999/xlink" xmlns:svgjs="http://svgjs.com/svgjs" version="1.1" width="512" height="512" x="0" y="0" viewBox="0 0 505.624 505.624" style="enable-background:new 0 0 512 512" xml:space="preserve" class=""><g><g xmlns="http://www.w3.org/2000/svg"><path d="m87.042 113.149c7.19-7.191 11.966-16.152 13.925-25.899h58.992c4.507 16.807 20.22 28.828 37.618 28.828 17.395 0 33.111-12.018 37.618-28.828h10.059c4.507 16.807 20.22 28.828 37.618 28.828 17.395 0 33.111-12.018 37.618-28.828h46.365c29.783 0 56.507 16.591 69.742 43.298 5.642 11.385 23.613 2.608 17.92-8.881-16.634-33.565-50.224-54.417-87.662-54.417h-46.281c-4.391-16.932-20.202-29.138-37.701-29.138-17.511 0-33.302 12.178-37.701 29.138h-9.892c-4.391-16.932-20.202-29.138-37.701-29.138-17.511 0-33.302 12.178-37.701 29.138h-58.848c-4.599-23.635-25.995-41.144-50.039-41.144-27.767 0-50.991 23.219-50.991 50.988 0 27.765 23.219 50.988 50.988 50.988 13.619 0 26.423-5.303 36.054-14.933zm182.406-49.478c3.7-3.701 8.562-5.551 13.423-5.551s9.723 1.85 13.423 5.551c7.401 7.402 7.401 19.445 0 26.847-3.585 3.585-8.353 5.56-13.423 5.56s-9.838-1.975-13.423-5.561c-7.401-7.402-7.401-19.444 0-26.846zm-85.294 0c3.7-3.701 8.562-5.551 13.423-5.551s9.723 1.85 13.423 5.551c7.401 7.402 7.401 19.445 0 26.847-3.585 3.585-8.353 5.56-13.423 5.56s-9.838-1.975-13.423-5.561c-7.401-7.402-7.401-19.444 0-26.846zm-164.154 13.423c0-8.277 3.223-16.059 9.076-21.912s13.635-9.077 21.912-9.077c8.276 0 16.059 3.224 21.911 9.077 5.854 5.853 9.076 13.634 9.076 21.912s-3.223 16.06-9.076 21.912c-5.853 5.853-13.635 9.076-21.911 9.076-8.277 0-16.06-3.223-21.912-9.076-5.853-5.852-9.076-13.634-9.076-21.912z" fill="#7371dc" data-original="#000000" style="" class=""/><path d="m490.69 392.476c-9.631-9.63-22.435-14.934-36.054-14.934-23.93 0-45.262 17.346-49.981 40.84h-84.125c-4.454-16.89-20.177-28.983-37.659-28.983-17.453 0-33.206 12.098-37.659 28.983h-9.977c-4.454-16.89-20.177-28.983-37.659-28.983-17.453 0-33.206 12.098-37.659 28.983h-21.148c-42.89 0-77.782-34.894-77.782-77.784s34.893-77.782 77.782-77.782h21.148c4.452 16.883 20.203 28.983 37.659 28.983 17.453 0 33.207-12.099 37.659-28.984h9.976c4.452 16.883 20.202 28.984 37.659 28.984 17.453 0 33.205-12.099 37.659-28.983h46.324c36.077 0 69.104-19.76 86.191-51.568 6.076-11.312-11.535-20.793-17.619-9.465-13.596 25.31-39.871 41.033-68.572 41.033h-46.323c-4.452-16.883-20.203-28.983-37.659-28.983-17.453 0-33.206 12.098-37.659 28.983h-9.977c-4.452-16.883-20.203-28.983-37.659-28.983-17.453 0-33.206 12.098-37.659 28.983h-21.148c-53.917 0-97.782 43.866-97.782 97.784s43.865 97.783 97.782 97.783h21.148c4.452 16.881 20.206 28.965 37.659 28.965 17.449 0 33.206-12.083 37.659-28.965h9.977c4.452 16.881 20.206 28.965 37.659 28.965 17.449 0 33.206-12.083 37.659-28.965h84.068c4.602 23.632 25.998 41.136 50.039 41.136 27.764 0 50.987-23.219 50.987-50.987 0-13.621-5.304-26.425-14.934-36.056zm-221.242-153.084c3.585-3.585 8.353-5.56 13.423-5.56s9.838 1.975 13.423 5.56c7.401 7.402 7.401 19.445 0 26.847s-19.444 7.4-26.846.001c-7.401-7.402-7.401-19.446 0-26.848zm-85.294 0c3.585-3.585 8.353-5.56 13.423-5.56s9.838 1.975 13.423 5.56c7.401 7.402 7.401 19.445 0 26.847s-19.444 7.4-26.846.001c-7.401-7.402-7.401-19.446 0-26.848zm26.846 202.413c-3.585 3.586-8.353 5.561-13.423 5.561s-9.838-1.975-13.423-5.56c-7.401-7.402-7.401-19.446 0-26.848 3.585-3.586 8.353-5.56 13.423-5.56s9.838 1.974 13.423 5.559c7.401 7.403 7.401 19.447 0 26.848zm85.294 0c-3.585 3.586-8.353 5.561-13.423 5.561s-9.838-1.975-13.423-5.56c-7.401-7.402-7.401-19.446 0-26.848 3.585-3.586 8.353-5.56 13.423-5.56s9.838 1.974 13.423 5.559c7.401 7.403 7.401 19.447 0 26.848zm180.254 8.637c-5.853 5.854-13.635 9.076-21.911 9.076-8.277 0-16.06-3.223-21.912-9.076-5.854-5.853-9.076-13.635-9.076-21.911 0-8.277 3.223-16.06 9.076-21.912 5.853-5.854 13.635-9.076 21.912-9.076 8.276 0 16.059 3.223 21.911 9.076 5.854 5.853 9.076 13.635 9.076 21.912 0 8.276-3.223 16.059-9.076 21.911z" fill="#7371dc" data-original="#000000" style="" class=""/><path d="m452.467 156.067c-5.34-1.075-10.683 2.523-11.75 7.85-1.073 5.358 2.507 10.679 7.85 11.76 5.35 1.083 10.672-2.525 11.75-7.85 1.083-5.352-2.526-10.675-7.85-11.76z" fill="#7371dc" data-original="#000000" style="" class=""/></g></g></svg>
