<?xml version="1.0"?>
<svg xmlns="http://www.w3.org/2000/svg" id="Capa_1" enable-background="new 0 0 512 512" height="512px" viewBox="0 0 512 512" width="512px"><g><g><path d="m255.995 101.946c5.522 0 10-4.478 10-10v-50.94c0-5.522-4.477-10-10-10s-10 4.477-10 10v50.94c.001 5.522 4.478 10 10 10z" data-original="#000000" class="active-path" data-old_color="#000000" fill="#7371DC"/><path d="m180.812 118.373c1.901 3.017 5.148 4.669 8.469 4.669 1.822 0 3.667-.498 5.322-1.541 4.672-2.944 6.072-9.119 3.128-13.792l-26.644-42.275c-2.945-4.672-9.12-6.073-13.791-3.128-4.672 2.944-6.072 9.119-3.128 13.792z" data-original="#000000" class="active-path" data-old_color="#000000" fill="#7371DC"/><path d="m317.42 121.504c1.655 1.041 3.498 1.538 5.318 1.538 3.322 0 6.571-1.654 8.472-4.673l26.616-42.275c2.942-4.674 1.539-10.847-3.135-13.791-4.676-2.941-10.847-1.537-13.79 3.135l-26.616 42.275c-2.942 4.675-1.538 10.848 3.135 13.791z" data-original="#000000" class="active-path" data-old_color="#000000" fill="#7371DC"/><path d="m508.776 266.432-17.375-30.695c-2.722-4.808-8.824-6.498-13.627-3.776-4.807 2.721-6.497 8.822-3.776 13.627l17.367 30.682c.87 1.542.644 3.029.432 3.778-.204.721-.766 2.052-2.236 2.864l-26.778 14.833c-2.379 1.314-5.484.484-6.781-1.804l-6.803-12.034c-.028-.054-.06-.104-.089-.157l-70.33-124.394c-.869-1.531-.649-2.999-.441-3.738.201-.715.759-2.036 2.229-2.849l26.81-14.836c2.409-1.334 5.438-.524 6.755 1.81l15.674 27.693c2.721 4.807 8.824 6.496 13.628 3.777 4.807-2.72 6.497-8.822 3.777-13.628l-15.667-27.681c-6.682-11.846-21.864-16.095-33.846-9.472l-26.809 14.836c-5.801 3.206-9.992 8.505-11.8 14.924-1.706 6.052-1.096 12.37 1.697 17.915l-14.768 4.28c-6.291 1.82-10.109 2.807-12.228 2.807-.009 0-.017 0-.025 0-1.459-.005-3.05-.562-7.591-2.282-2.06-.78-4.625-1.752-7.778-2.852l-26.165-9.147c-14.471-5.054-20.998-4.782-30.454-3.919l-44.616 3.993c-20.339 1.802-33.306 6.39-40.464 14.347l-25.426-7.367c2.736-5.521 3.323-11.778 1.633-17.775-1.808-6.415-5.996-11.713-11.791-14.919l-26.794-14.843c-11.992-6.629-27.183-2.378-33.866 9.465l-77.204 136.523c-3.305 5.819-4.123 12.587-2.301 19.058 1.81 6.426 6 11.73 11.79 14.932l26.794 14.841c3.831 2.118 7.993 3.124 12.1 3.124 8.725 0 17.207-4.539 21.766-12.588l2.831-5.008c7.726 3.401 14.213 8.342 18.634 14.192-4.318 5.046-7.038 11.273-7.801 18.046-1.008 8.957 1.522 17.745 7.124 24.75 5.554 6.945 13.496 11.327 22.377 12.359-.94 8.881 1.6 17.583 7.159 24.51 5.746 7.184 13.867 11.375 22.362 12.364-.936 8.868 1.595 17.562 7.137 24.493 5.551 6.96 13.495 11.351 22.385 12.383-.941 8.888 1.599 17.595 7.158 24.523 6.626 8.284 16.408 12.597 26.283 12.596 7.372 0 14.796-2.404 20.994-7.354l20.938-16.754c1.663-1.327 3.174-2.794 4.533-4.374l11.96 9.554c6.185 4.936 13.592 7.334 20.954 7.333 9.88-.001 19.678-4.319 26.313-12.611 3.497-4.372 5.711-9.362 6.711-14.513 3.497 1.21 7.189 1.835 10.953 1.834 1.262 0 2.532-.07 3.806-.211 8.96-.995 16.972-5.401 22.539-12.383 5.569-6.938 8.109-15.639 7.17-24.519 8.489-.991 16.614-5.181 22.377-12.362 5.74-7.177 8.044-16.013 7.142-24.511 8.876-1.034 16.814-5.415 22.355-12.344 5.606-6.986 8.147-15.761 7.154-24.711-.754-6.794-3.476-13.042-7.802-18.102 4.408-5.848 10.882-10.795 18.613-14.194l2.837 5.018c4.556 8.046 13.034 12.583 21.761 12.583 4.109-.001 8.275-1.007 12.11-3.127l26.779-14.834c5.788-3.2 9.976-8.496 11.793-14.911 1.832-6.465 1.031-13.233-2.262-19.068zm-452.783 29.504c-1.3 2.296-4.407 3.124-6.776 1.813l-26.793-14.84c-1.463-.81-2.021-2.136-2.225-2.855-.209-.745-.432-2.224.45-3.774l77.216-136.55c.884-1.567 2.55-2.445 4.28-2.445.842 0 1.698.207 2.488.644l26.786 14.838c.003.002.006.004.009.005 1.466.811 2.023 2.132 2.225 2.847.208.739.428 2.207-.451 3.755zm72.974 51.46c-2.82 2.259-6.381 3.28-10.02 2.875-3.641-.404-6.886-2.178-9.14-4.996-2.259-2.825-3.277-6.385-2.868-10.023.407-3.623 2.182-6.852 5.016-9.107l37.438-29.926c5.876-4.691 14.477-3.726 19.173 2.139 2.258 2.823 3.277 6.377 2.869 10.004-.406 3.615-2.182 6.841-5 9.083-.062.049-.115.104-.175.155l-37.284 29.789c-.003.002-.006.005-.009.007zm10.364 34.734c-2.257-2.813-3.277-6.358-2.874-9.982.403-3.627 2.18-6.871 5.002-9.134l.003-.002c.002-.001.004-.003.006-.004.001 0 .001-.001.002-.002l53.926-43.084c5.875-4.692 14.478-3.734 19.173 2.139 2.255 2.819 3.274 6.369 2.871 9.995-.404 3.63-2.186 6.874-5.015 9.134l-53.912 43.068c-5.882 4.694-14.482 3.747-19.182-2.128zm38.658 41.89c-3.64-.404-6.882-2.18-9.139-5.01-2.255-2.819-3.274-6.369-2.871-9.995.404-3.627 2.183-6.868 5.008-9.128.002-.002.005-.004.007-.006l37.318-29.812c.044-.034.092-.063.136-.098 5.86-4.691 14.46-3.736 19.16 2.122 2.259 2.824 3.278 6.384 2.869 10.022-.408 3.623-2.183 6.852-5.016 9.107l-37.437 29.925c-2.829 2.259-6.394 3.275-10.035 2.873zm65.518 8.118c-.405 3.627-2.182 6.864-5.012 9.124l-20.939 16.757c-5.883 4.695-14.483 3.75-19.181-2.126-2.257-2.811-3.278-6.359-2.875-9.99s2.178-6.87 4.995-9.12c.003-.002.007-.005.01-.007l20.934-16.734c.011-.009.023-.016.034-.024 5.877-4.69 14.478-3.729 19.174 2.139 2.249 2.814 3.266 6.357 2.86 9.981zm158.678-86.864c-2.254 2.818-5.5 4.593-9.14 4.997-3.637.409-7.2-.615-10.02-2.875-.001-.001-.003-.002-.005-.003-.001-.001-.003-.002-.004-.003l-26.758-21.379c-4.316-3.448-10.608-2.744-14.054 1.57-3.447 4.314-2.744 10.607 1.57 14.054l26.749 21.372c5.868 4.699 6.835 13.283 2.165 19.122-4.712 5.872-13.313 6.827-19.185 2.124l-29.025-23.162c-4.316-3.444-10.608-2.737-14.053 1.579-3.444 4.316-2.738 10.608 1.579 14.053l29.011 23.151c2.827 2.264 4.606 5.51 5.01 9.141.403 3.624-.617 7.17-2.893 10.005-2.249 2.82-5.491 4.595-9.13 5-3.643.401-7.208-.616-10.026-2.865l-14.442-11.55c-.025-.02-.047-.041-.072-.061l-12.202-9.755-2.281-1.824c-4.315-3.45-10.607-2.749-14.055 1.563-.431.54-.798 1.11-1.1 1.702-1.448 2.83-1.424 6.149-.065 8.932.629 1.289 1.535 2.466 2.729 3.421l14.521 11.613c5.829 4.707 6.782 13.262 2.115 19.097-4.697 5.871-13.299 6.83-19.172 2.145l-16.475-13.162c.686-8.559-1.85-16.906-7.214-23.613-3.334-4.167-7.469-7.323-12.01-9.44 3.328-4.617 5.441-10.041 6.097-15.873 1.008-8.956-1.522-17.744-7.134-24.761-3.335-4.156-7.465-7.305-11.997-9.417 3.334-4.631 5.447-10.066 6.097-15.906.995-8.936-1.537-17.707-7.129-24.7-9.622-12.03-25.894-15.687-39.437-9.939-1.084-4.978-3.299-9.674-6.569-13.763-11.578-14.468-32.78-16.835-47.271-5.273l-26.776 21.403c-6.055-7.727-14.286-14.135-24.018-18.705l55.079-97.421 29.326 8.497c.134 1.569.388 3.219.813 4.967 7.099 29.188 33.973 42.788 70.136 35.501 30.47-6.131 43.014 3.002 67.997 21.195 2.592 1.887 5.285 3.848 8.104 5.867 17.967 12.89 37.167 28.041 50.04 38.31l32.46 25.942c2.82 2.25 4.595 5.49 4.998 9.124.403 3.631-.617 7.179-2.884 10.003zm-.311-43.286-21.783-17.409c-13.051-10.411-32.522-25.774-50.867-38.936-2.78-1.991-5.431-3.922-7.983-5.78-25.906-18.865-44.629-32.495-83.717-24.634-11.964 2.411-40.468 5.23-46.755-20.618-.886-3.649.014-4.903.397-5.438 1.337-1.864 6.717-6.401 27.766-8.265l44.663-3.997c7.278-.664 10.929-.998 22.037 2.882l26.168 9.148c2.909 1.016 5.235 1.896 7.288 2.674 12.6 4.773 15.939 4.772 32.492-.019l19.292-5.59 55.005 97.289c-9.735 4.567-17.958 10.97-24.003 18.693z" data-original="#000000" class="active-path" data-old_color="#000000" fill="#7371DC"/><path d="m460.57 211.599c5.522 0 10-4.492 10-10.015s-4.478-10-10-10-10 4.478-10 10v.028c0 5.523 4.478 9.987 10 9.987z" data-original="#000000" class="active-path" data-old_color="#000000" fill="#7371DC"/></g></g> </svg>
