<?xml version="1.0" encoding="UTF-8" standalone="no"?>
<svg
   xmlns:dc="http://purl.org/dc/elements/1.1/"
   xmlns:cc="http://creativecommons.org/ns#"
   xmlns:rdf="http://www.w3.org/1999/02/22-rdf-syntax-ns#"
   xmlns:svg="http://www.w3.org/2000/svg"
   xmlns="http://www.w3.org/2000/svg"
   xmlns:sodipodi="http://sodipodi.sourceforge.net/DTD/sodipodi-0.dtd"
   xmlns:inkscape="http://www.inkscape.org/namespaces/inkscape"
   width="24"
   height="24"
   viewBox="0 0 24 24"
   fill="none"
   version="1.1"
   id="svg6"
   sodipodi:docname="eye.svg"
   inkscape:version="1.0.1 (3bc2e813f5, 2020-09-07)">
  <metadata
     id="metadata12">
    <rdf:RDF>
      <cc:Work
         rdf:about="">
        <dc:format>image/svg+xml</dc:format>
        <dc:type
           rdf:resource="http://purl.org/dc/dcmitype/StillImage" />
      </cc:Work>
    </rdf:RDF>
  </metadata>
  <defs
     id="defs10" />
  <sodipodi:namedview
     pagecolor="#ffffff"
     bordercolor="#666666"
     borderopacity="1"
     objecttolerance="10"
     gridtolerance="10"
     guidetolerance="10"
     inkscape:pageopacity="0"
     inkscape:pageshadow="2"
     inkscape:window-width="1366"
     inkscape:window-height="652"
     id="namedview8"
     showgrid="false"
     inkscape:zoom="20.75"
     inkscape:cx="12"
     inkscape:cy="12"
     inkscape:window-x="0"
     inkscape:window-y="27"
     inkscape:window-maximized="1"
     inkscape:current-layer="svg6"
     inkscape:document-rotation="0" />
  <path
     fill-rule="evenodd"
     clip-rule="evenodd"
     d="M8.25 12C8.25 9.92893 9.92893 8.25 12 8.25C14.0711 8.25 15.75 9.92893 15.75 12C15.75 14.0711 14.0711 15.75 12 15.75C9.92893 15.75 8.25 14.0711 8.25 12ZM12 9.75C10.7574 9.75 9.75 10.7574 9.75 12C9.75 13.2426 10.7574 14.25 12 14.25C13.2426 14.25 14.25 13.2426 14.25 12C14.25 10.7574 13.2426 9.75 12 9.75Z"
     fill="black"
     id="path2"
     style="fill:#ffd139;fill-opacity:1" />
  <path
     fill-rule="evenodd"
     clip-rule="evenodd"
     d="M4.32343 10.6464C3.90431 11.2503 3.75 11.7227 3.75 12C3.75 12.2773 3.90431 12.7497 4.32343 13.3536C4.72857 13.9374 5.33078 14.5703 6.09267 15.155C7.61978 16.3271 9.71345 17.25 12 17.25C14.2865 17.25 16.3802 16.3271 17.9073 15.155C18.6692 14.5703 19.2714 13.9374 19.6766 13.3536C20.0957 12.7497 20.25 12.2773 20.25 12C20.25 11.7227 20.0957 11.2503 19.6766 10.6464C19.2714 10.0626 18.6692 9.42972 17.9073 8.84497C16.3802 7.67292 14.2865 6.75 12 6.75C9.71345 6.75 7.61978 7.67292 6.09267 8.84497C5.33078 9.42972 4.72857 10.0626 4.32343 10.6464ZM5.17941 7.65503C6.90965 6.32708 9.31598 5.25 12 5.25C14.684 5.25 17.0903 6.32708 18.8206 7.65503C19.6874 8.32028 20.4032 9.06244 20.9089 9.79115C21.4006 10.4997 21.75 11.2773 21.75 12C21.75 12.7227 21.4006 13.5003 20.9089 14.2089C20.4032 14.9376 19.6874 15.6797 18.8206 16.345C17.0903 17.6729 14.684 18.75 12 18.75C9.31598 18.75 6.90965 17.6729 5.17941 16.345C4.31262 15.6797 3.59681 14.9376 3.0911 14.2089C2.59937 13.5003 2.25 12.7227 2.25 12C2.25 11.2773 2.59937 10.4997 3.0911 9.79115C3.59681 9.06244 4.31262 8.32028 5.17941 7.65503Z"
     fill="black"
     id="path4"
     style="fill:#ffd139;fill-opacity:1" />
</svg>
