<?xml version="1.0" encoding="UTF-8" standalone="no"?>
<svg
   xmlns:dc="http://purl.org/dc/elements/1.1/"
   xmlns:cc="http://creativecommons.org/ns#"
   xmlns:rdf="http://www.w3.org/1999/02/22-rdf-syntax-ns#"
   xmlns:svg="http://www.w3.org/2000/svg"
   xmlns="http://www.w3.org/2000/svg"
   xmlns:sodipodi="http://sodipodi.sourceforge.net/DTD/sodipodi-0.dtd"
   xmlns:inkscape="http://www.inkscape.org/namespaces/inkscape"
   width="24"
   height="24"
   viewBox="0 0 24 24"
   fill="none"
   version="1.1"
   id="svg4"
   sodipodi:docname="search.svg"
   inkscape:version="1.0.2 (e86c870879, 2021-01-15)">
  <metadata
     id="metadata10">
    <rdf:RDF>
      <cc:Work
         rdf:about="">
        <dc:format>image/svg+xml</dc:format>
        <dc:type
           rdf:resource="http://purl.org/dc/dcmitype/StillImage" />
      </cc:Work>
    </rdf:RDF>
  </metadata>
  <defs
     id="defs8" />
  <sodipodi:namedview
     pagecolor="#ffffff"
     bordercolor="#666666"
     borderopacity="1"
     objecttolerance="10"
     gridtolerance="10"
     guidetolerance="10"
     inkscape:pageopacity="0"
     inkscape:pageshadow="2"
     inkscape:window-width="1366"
     inkscape:window-height="705"
     id="namedview6"
     showgrid="false"
     inkscape:zoom="15.375"
     inkscape:cx="12"
     inkscape:cy="12"
     inkscape:window-x="0"
     inkscape:window-y="30"
     inkscape:window-maximized="1"
     inkscape:current-layer="svg4" />
  <path
     fill-rule="evenodd"
     clip-rule="evenodd"
     d="M14.3851 15.4457C11.7348 17.5684 7.85537 17.4013 5.39858 14.9445C2.76254 12.3085 2.76254 8.03464 5.39858 5.3986C8.03462 2.76256 12.3085 2.76256 14.9445 5.3986C17.4013 7.85538 17.5684 11.7348 15.4457 14.3851L20.6014 19.5407C20.8943 19.8336 20.8943 20.3085 20.6014 20.6014C20.3085 20.8943 19.8336 20.8943 19.5407 20.6014L14.3851 15.4457ZM6.45924 13.8839C4.40899 11.8336 4.40899 8.50951 6.45924 6.45926C8.5095 4.40901 11.8336 4.40901 13.8839 6.45926C15.9326 8.50801 15.9341 11.8287 13.8884 13.8794C13.8869 13.8809 13.8854 13.8823 13.8838 13.8839C13.8823 13.8854 13.8808 13.8869 13.8794 13.8884C11.8287 15.9341 8.50799 15.9326 6.45924 13.8839Z"
     fill="black"
     id="path2"
     style="fill:#ffffff" />
</svg>
